#!OML:ASF H:\Martial Arts Walks\Project 1\Capture day 1\Session 1\male.ASF
:FULLY-SPECIFIED
:DEGREES
1759
root -4.61794 10.2155 -0.757742 -149.444 76.6653 -157.884
lowerback 19.9944 6.01549 3.63033
upperback -3.28002 8.8193 -1.07324
thorax -14.205 3.6685 -6.0101
lowerneck -1.14819 12.0713 4.24122
upperneck 5.77811 16.2394 -2.91985
head 2.67241 8.11469 -1.11819
rclavicle 8.92046e-015 3.18055e-014
rhumerus -25.0752 54.7996 -79.8074
rradius 109.641
rwrist 8.15378
rhand -12.2956 -25.7154
rfingers 7.12502
rthumb 13.7722 -55.2396
lclavicle 8.92046e-015 3.18055e-014
lhumerus -10.3933 7.19987 66.2939
lradius 110.069
lwrist 41.2772
lhand -26.3647 11.8365
lfingers 7.12502
lthumb 0.193515 41.8161
rfemur -50.3809 -47.0606 -8.78014
rtibia 106.537
rfoot -36.2587 -5.49513
rtoes -40.7663
lfemur -83.3192 40.5101 0.453019
ltibia 107.829
lfoot -34.9117 -17.8407
ltoes -18.2891
1760
root -4.62326 10.2298 -0.768803 -148.633 76.6007 -157.092
lowerback 20.1462 5.98022 3.79487
upperback -3.2792 8.83104 -0.992566
thorax -14.2817 3.65818 -6.03403
lowerneck -0.989978 12.1315 4.08973
upperneck 5.49948 16.3161 -2.90693
head 2.53754 8.15181 -1.10973
rclavicle 4.16951e-014 7.95139e-016
rhumerus -25.049 54.8705 -79.7562
rradius 109.561
rwrist 8.09833
rhand -12.2958 -25.9586
rfingers 7.12502
rthumb 13.7719 -55.4828
lclavicle 4.16951e-014 7.95139e-016
lhumerus -10.5076 7.245 66.2979
lradius 110.053
lwrist 41.3333
lhand -26.3409 11.525
lfingers 7.12502
lthumb 0.216447 41.5046
rfemur -50.4171 -46.7642 -8.42506
rtibia 106.33
rfoot -36.0977 -5.90114
rtoes -41.0119
lfemur -83.3017 40.4466 0.61617
ltibia 107.787
lfoot -34.8814 -17.7284
ltoes -18.2868
1761
root -4.62816 10.2421 -0.779919 -148.341 76.5828 -156.818
lowerback 20.3047 5.9793 3.94885
upperback -3.25057 8.87113 -1.0135
thorax -14.3098 3.65976 -6.1723
lowerneck -1.24201 12.0628 4.19745
upperneck 5.54852 16.2159 -2.98177
head 2.61274 8.09843 -1.13375
rclavicle -1.49337e-014 -5.66536e-015
rhumerus -25.0274 54.7467 -79.7589
rradius 109.449
rwrist 8.2024
rhand -12.2533 -26.0115
rfingers 7.12502
rthumb 13.8129 -55.5329
lclavicle -1.49337e-014 -5.66536e-015
lhumerus -10.4822 7.10702 66.3257
lradius 110.032
lwrist 41.1089
lhand -26.2013 11.5912
lfingers 7.12502
lthumb 0.351309 41.5706
rfemur -50.4342 -46.6187 -8.25579
rtibia 106.144
rfoot -35.8954 -6.46641
rtoes -41.4171
lfemur -83.2742 40.3142 0.647183
ltibia 107.744
lfoot -34.8276 -17.5966
ltoes -18.251
1762
root -4.63491 10.2594 -0.792958 -147.869 76.5627 -156.393
lowerback 20.4673 5.98008 4.08032
upperback -3.23985 8.91467 -0.996201
thorax -14.3711 3.66417 -6.25904
lowerneck -1.30343 12.0474 4.17966
upperneck 5.43101 16.1886 -3.01675
head 2.58481 8.08246 -1.14317
rclavicle -2.10712e-014 -1.49089e-014
rhumerus -25.0864 54.6666 -79.7759
rradius 109.371
rwrist 8.33057
rhand -12.2385 -25.9763
rfingers 7.12502
rthumb 13.8272 -55.4967
lclavicle -2.10712e-014 -1.49089e-014
lhumerus -10.4882 7.00537 66.3662
lradius 110.006
lwrist 40.9591
lhand -26.2137 11.5038
lfingers 7.12502
lthumb 0.33936 41.4833
rfemur -50.5189 -46.3956 -8.01567
rtibia 105.917
rfoot -35.6994 -6.59012
rtoes -41.4657
lfemur -83.2556 40.1799 0.680629
ltibia 107.68
lfoot -34.8223 -17.3153
ltoes -18.3996
1763
root -4.64212 10.2814 -0.807162 -147.314 76.5426 -155.865
lowerback 20.6344 5.9491 4.191
upperback -3.20197 8.91435 -0.947583
thorax -14.4165 3.65343 -6.28457
lowerneck -1.24713 12.0892 4.19529
upperneck 5.14564 16.2421 -3.18615
head 2.49955 8.10584 -1.20852
rclavicle -1.43274e-013 1.95803e-014
rhumerus -24.9644 54.7225 -79.6552
rradius 109.289
rwrist 8.42456
rhand -12.1455 -25.9716
rfingers 7.12502
rthumb 13.9168 -55.4859
lclavicle -1.43274e-013 1.95803e-014
lhumerus -10.506 7.03086 66.3884
lradius 109.962
lwrist 40.803
lhand -26.2081 11.3397
lfingers 7.12502
lthumb 0.344764 41.3191
rfemur -50.577 -46.067 -7.78936
rtibia 105.636
rfoot -35.5145 -6.21246
rtoes -41.0943
lfemur -83.1859 40.0534 0.740612
ltibia 107.592
lfoot -34.6954 -17.2382
ltoes -18.1008
1764
root -4.64997 10.3047 -0.823378 -146.648 76.5137 -155.242
lowerback 20.7921 5.93173 4.32641
upperback -3.16759 8.94001 -0.89162
thorax -14.4548 3.65342 -6.32187
lowerneck -1.37063 12.0725 4.13697
upperneck 5.07432 16.2125 -3.19926
head 2.49211 8.08774 -1.19956
rclavicle 3.0091e-014 6.06293e-015
rhumerus -24.9288 54.7563 -79.5477
rradius 109.244
rwrist 8.5792
rhand -12.0373 -25.8618
rfingers 7.12502
rthumb 14.021 -55.3689
lclavicle 3.0091e-014 6.06293e-015
lhumerus -10.5221 6.9961 66.4527
lradius 109.952
lwrist 40.6739
lhand -26.2559 11.3898
lfingers 7.12502
lthumb 0.298631 41.3693
rfemur -50.6377 -45.777 -7.48807
rtibia 105.326
rfoot -35.3076 -6.28332
rtoes -41.1115
lfemur -83.1414 39.9115 0.806854
ltibia 107.504
lfoot -34.6864 -16.9487
ltoes -18.1936
1765
root -4.65889 10.3307 -0.843625 -145.325 76.4143 -153.975
lowerback 20.9495 5.92757 4.5877
upperback -3.16373 9.02841 -0.770382
thorax -14.5142 3.67314 -6.37572
lowerneck -0.963107 12.1061 3.91997
upperneck 4.51191 16.2559 -3.24721
head 2.2188 8.11074 -1.22824
rclavicle 5.561e-014 -3.27995e-015
rhumerus -24.7261 54.786 -79.3746
rradius 109.035
rwrist 8.72441
rhand -11.9663 -25.8782
rfingers 7.12502
rthumb 14.0895 -55.3806
lclavicle 5.561e-014 -3.27995e-015
lhumerus -10.5258 6.9789 66.5308
lradius 109.882
lwrist 40.7668
lhand -26.2185 11.3981
lfingers 7.12502
lthumb 0.334696 41.3776
rfemur -50.7086 -45.4267 -6.96397
rtibia 104.944
rfoot -35.1 -6.37803
rtoes -41.0688
lfemur -83.1447 39.837 1.01135
ltibia 107.42
lfoot -34.7363 -16.567
ltoes -18.5647
1766
root -4.66867 10.3563 -0.86453 -145.047 76.3978 -153.786
lowerback 21.0687 5.86341 4.7228
upperback -3.1053 8.97628 -0.805585
thorax -14.494 3.63755 -6.48456
lowerneck -1.52951 12.0741 4.25441
upperneck 4.82793 16.2053 -3.4502
head 2.47374 8.07794 -1.29146
rclavicle -3.77194e-014 -9.0447e-015
rhumerus -24.7743 54.7953 -79.3083
rradius 109.187
rwrist 8.94702
rhand -11.6563 -26.3467
rfingers 7.12502
rthumb 14.3882 -55.828
lclavicle -3.77194e-014 -9.0447e-015
lhumerus -10.4673 6.91683 66.4899
lradius 109.907
lwrist 40.8219
lhand -26.3398 11.5265
lfingers 7.12502
lthumb 0.217523 41.5062
rfemur -50.7595 -45.2213 -6.75011
rtibia 104.583
rfoot -34.7713 -7.07298
rtoes -41.4586
lfemur -83.128 39.5732 0.942785
ltibia 107.315
lfoot -34.6899 -16.2334
ltoes -18.6393
1767
root -4.67678 10.3905 -0.887994 -143.273 76.2261 -152.098
lowerback 21.1508 5.87021 5.04637
upperback -3.10504 9.10577 -0.606138
thorax -14.5122 3.67887 -6.48597
lowerneck -1.16969 12.212 3.75995
upperneck 4.38034 16.3838 -3.2078
head 2.19721 8.16947 -1.17866
rclavicle -8.6198e-014 1.93815e-014
rhumerus -24.2881 54.9294 -78.9001
rradius 108.764
rwrist 8.92499
rhand -11.9008 -25.7665
rfingers 7.12502
rthumb 14.1526 -55.2644
lclavicle -8.6198e-014 1.93815e-014
lhumerus -10.5004 6.85687 66.7
lradius 109.827
lwrist 40.7689
lhand -26.2434 11.4109
lfingers 7.12502
lthumb 0.310631 41.3904
rfemur -50.823 -44.7992 -6.06242
rtibia 104.09
rfoot -34.5865 -6.97669
rtoes -41.1449
lfemur -83.125 39.5029 1.26131
ltibia 107.197
lfoot -34.674 -15.9605
ltoes -18.7778
1768
root -4.68651 10.4238 -0.913012 -142.236 76.1094 -151.157
lowerback 21.239 5.84197 5.25962
upperback -3.07199 9.14219 -0.514781
thorax -14.5037 3.68346 -6.51915
lowerneck -0.970581 12.1325 3.8821
upperneck 4.01037 16.2783 -3.47211
head 2.07394 8.11714 -1.30716
rclavicle -5.04168e-014 5.06901e-015
rhumerus -24.0523 55.0094 -78.6348
rradius 108.658
rwrist 8.87288
rhand -11.8058 -25.7366
rfingers 7.12502
rthumb 14.2441 -55.2281
lclavicle -5.04168e-014 5.06901e-015
lhumerus -10.4544 6.77556 66.8095
lradius 109.778
lwrist 40.7633
lhand -26.2374 11.3422
lfingers 7.12502
lthumb 0.316439 41.3217
rfemur -50.8629 -44.4706 -5.59896
rtibia 103.61
rfoot -34.2944 -7.28646
rtoes -41.2711
lfemur -83.1295 39.3133 1.36746
ltibia 107.07
lfoot -34.6808 -15.5245
ltoes -19.0459
1769
root -4.69649 10.4619 -0.939865 -141.251 75.9471 -150.251
lowerback 21.3505 5.79155 5.50085
upperback -3.02973 9.16001 -0.411018
thorax -14.4983 3.67782 -6.55053
lowerneck -0.887448 12.0915 3.85344
upperneck 3.74341 16.2183 -3.54692
head 1.97403 8.08721 -1.34309
rclavicle 7.47368e-014 2.59166e-014
rhumerus -23.6778 55.0861 -78.3028
rradius 108.43
rwrist 8.73356
rhand -11.7391 -25.8898
rfingers 7.12502
rthumb 14.3084 -55.3768
lclavicle 7.47368e-014 2.59166e-014
lhumerus -10.3916 6.71205 66.9648
lradius 109.735
lwrist 40.7913
lhand -26.0993 11.3078
lfingers 7.12502
lthumb 0.449833 41.2871
rfemur -50.8228 -44.119 -5.15425
rtibia 103.078
rfoot -33.9905 -7.41232
rtoes -41.2
lfemur -83.0966 39.0485 1.50143
ltibia 106.914
lfoot -34.6557 -15.132
ltoes -19.231
1770
root -4.70763 10.5019 -0.969245 -140.343 75.7627 -149.431
lowerback 21.4576 5.74401 5.74838
upperback -2.984 9.18097 -0.324615
thorax -14.4815 3.67321 -6.6048
lowerneck -0.923137 12.0855 3.8601
upperneck 3.58454 16.2022 -3.57031
head 1.9303 8.0786 -1.35505
rclavicle 3.20602e-014 -4.57453e-014
rhumerus -23.3381 55.1168 -77.9957
rradius 108.207
rwrist 8.58536
rhand -11.7751 -25.9359
rfingers 7.12502
rthumb 14.2737 -55.4254
lclavicle 3.20602e-014 -4.57453e-014
lhumerus -10.2691 6.54059 67.1325
lradius 109.665
lwrist 40.7724
lhand -26.1385 11.2949
lfingers 7.12502
lthumb 0.411941 41.2742
rfemur -50.7915 -43.8186 -4.71075
rtibia 102.532
rfoot -33.6564 -7.43347
rtoes -41.0452
lfemur -83.0785 38.7425 1.61424
ltibia 106.738
lfoot -34.5687 -14.7877
ltoes -19.2889
1771
root -4.71787 10.5459 -0.999319 -139.651 75.6427 -148.771
lowerback 21.5977 5.65507 5.98821
upperback -2.88565 9.13149 -0.320593
thorax -14.4165 3.63712 -6.72649
lowerneck -1.55625 12.1121 4.06261
upperneck 3.9195 16.2173 -3.48237
head 2.16121 8.08046 -1.3032
rclavicle -1.74744e-014 -8.94531e-015
rhumerus -22.9911 55.1563 -77.7194
rradius 108.066
rwrist 8.47499
rhand -11.6575 -25.9001
rfingers 7.12502
rthumb 14.3871 -55.3815
lclavicle -1.74744e-014 -8.94531e-015
lhumerus -10.0666 6.33716 67.1621
lradius 109.616
lwrist 40.5975
lhand -26.4536 11.3189
lfingers 7.12502
lthumb 0.10761 41.2986
rfemur -50.6817 -43.4211 -4.40744
rtibia 101.954
rfoot -33.3147 -7.17519
rtoes -40.6855
lfemur -82.9212 38.4372 1.6988
ltibia 106.541
lfoot -34.5278 -14.4214
ltoes -19.3354
